<svg id="Capa_1" enable-background="new 0 0 512.002 512.002" height="512" viewBox="0 0 512.002 512.002" width="512" xmlns="http://www.w3.org/2000/svg"><g><g><path d="m435.592 410.001 49.5-190 15.084-10.558c-9.358-49.346-33.293-93.531-67.174-127.894l-15.41 4.452-42.622-37v-11.246c-35.322-19.287-75.838-30.255-118.919-30.255s-83.597 10.968-118.919 30.255l-.039 7.746-42 36.048h-15.993c-33.882 34.364-57.816 78.549-67.174 127.895l15.167 16.557 48 180.5-2.136 17.5c45.424 49.479 110.633 80.501 183.094 80.501s137.671-31.022 183.094-80.501z" fill="#dbedff"/><path d="m81.586 256.001c0-124.664 91.8-227.879 211.487-245.754-12.08-1.805-24.44-2.747-37.022-2.747-43.081 0-83.597 10.968-118.919 30.255l-.039 7.746-42 36.048h-15.993c-33.882 34.364-57.816 78.549-67.174 127.895l15.167 16.557 48 180.5-2.136 17.5c45.424 49.479 110.633 80.501 183.094 80.501 12.566 0 24.907-.954 36.971-2.754-119.662-17.896-211.436-121.101-211.436-245.747z" fill="#b5dcff"/><path d="m426.926 120.359-20.44 3.273-83.636-61.437-5.854-15.747c-19.342-5.616-39.791-8.629-60.945-8.629s-41.604 3.013-60.945 8.629l-.013 15.747-66.703 45.914c-23.217 31.298-39.252 68.237-45.666 108.393h382.869l3.645-7.059c-7.203-33.133-21.939-63.449-42.312-89.084z" fill="#60b9fe"/><g><path d="m132.538 105.253-21.946 15.106h-25.416c-20.373 25.635-35.109 55.952-42.311 89.083l13.228 7.059h28.631c6.61-41.383 23.437-79.351 47.814-111.248z" fill="#1ca8ff"/></g><path d="m179.815 43.474c-27.087-2.68-51.292-6.926-70.451-11.011l-6.771 8.538 25.5 125.5 52.333 33h21l8.239-2.154c12.878-7.916 23.688-18.787 31.52-31.723v-.001c30.812-50.891-2.168-116.292-61.37-122.149z" fill="#97dc7c"/><path d="m125.333 124.317c-3.813-38.53-10.791-71.219-15.969-91.854-15.034-3.205-26.962-6.311-34.732-8.484-4.361-1.219-8.377 2.792-7.158 7.153 4.941 17.669 14.712 56.841 19.496 105.185 5.858 59.203 71.259 92.183 122.151 61.371.183-.111.362-.229.544-.341-40.84 1.954-79.869-27.923-84.332-73.03z" fill="#6bcb44"/><path d="m125.333 124.317c-3.813-38.53-10.791-71.219-15.969-91.854-15.034-3.205-26.962-6.311-34.732-8.484-4.361-1.219-8.377 2.792-7.158 7.153 4.941 17.669 14.712 56.841 19.496 105.185 5.858 59.203 71.259 92.183 122.151 61.371.183-.111.362-.229.544-.341-40.84 1.954-79.869-27.923-84.332-73.03z" fill="#6bcb44"/><path d="m430.259 56.668-123.333 22-28.667 54.333 3.25 38.583 11.543 19.182c3.152 2.507 6.464 4.824 9.929 6.921 50.892 30.812 116.292-2.168 122.151-61.371 2.998-30.302 7.956-56.997 12.456-77.056z" fill="#97dc7c"/><path d="m356.676 72.595c32.292-3.195 60.479-8.615 80.912-13.334 2.679-11.943 5.196-21.535 7.04-28.129 1.22-4.362-2.797-8.373-7.158-7.153-17.671 4.942-56.841 14.712-105.183 19.495-59.203 5.858-92.183 71.258-61.371 122.149v.001c5.845 9.655 13.352 18.157 22.135 25.143-26.824-50.258 5.953-112.465 63.625-118.172z" fill="#6bcb44"/><path d="m383.592 419.001h-243.076c15.507 17.83 33.524 33.41 53.486 46.229 19.667 5.825 40.493 8.954 62.05 8.954 52.919 0 101.433-18.844 139.21-50.182z" fill="#60b9fe"/><path d="m142.516 419.001h-18.968l-6.707 5c23.318 19.344 50.731 33.918 80.742 42.248-20.595-13.007-39.15-28.947-55.067-47.248z" fill="#1ca8ff"/><path d="m7.55 256.001c0 64.782 24.797 123.766 65.407 168h366.189c40.609-44.234 65.407-103.218 65.407-168 0-15.916-1.514-31.476-4.374-46.559h-488.255c-2.86 15.083-4.374 30.643-4.374 46.559z" fill="#6bcb44"/><path d="m81.586 256.001c0-15.916 1.514-31.475 4.374-46.559h-74.036c-2.86 15.083-4.374 30.644-4.374 46.559 0 64.782 24.797 123.766 65.406 168h74.036c-40.609-44.234-65.406-103.218-65.406-168z" fill="#4dc321"/></g><g><path d="m441.038 79.134c3.875-19.992 7.942-35.894 10.763-45.983 1.292-4.621-.012-9.598-3.403-12.99-3.393-3.394-8.373-4.697-12.997-3.406-12.223 3.418-32.964 8.664-59.191 13.181-36.782-19.588-78.284-29.936-120.209-29.936-41.924 0-83.426 10.348-120.207 29.937-26.227-4.517-46.969-9.763-59.191-13.181-4.621-1.291-9.604.012-12.997 3.406-3.392 3.392-4.695 8.37-3.403 12.991 2.821 10.088 6.888 25.99 10.763 45.982-45.803 47.878-70.966 110.548-70.966 176.866 0 141.491 114.498 256.001 256.001 256.001 141.779 0 256.001-114.787 256.001-256.001 0-66.264-25.126-128.95-70.964-176.867zm49.898 122.808h-15.794c-7.446-30.202-21.342-58.959-40.43-83.705.89-6.818 1.892-13.668 3.016-20.525 26.314 30.135 44.434 65.815 53.208 104.23zm-31.273 0h-65.808c20.921-14.071 34.851-36.388 38.291-61.504 12.392 18.892 21.743 39.767 27.517 61.504zm-23.105-169.944c-26.608 97.483-9.255 116.332-39.115 147.416-25.124 26.026-68.159 32.161-101.64 3.947l15.249-15.249c14.061 11.42 29.996 15.99 45.867 14.557 4.126-.372 7.168-4.018 6.796-8.144-.371-4.125-4.019-7.161-8.144-6.796-11.671 1.052-23.304-2.194-33.849-10.288l19.693-19.693c11.597 9.042 24.732 12.67 37.732 11.497 4.126-.372 7.168-4.019 6.796-8.144s-4.014-7.16-8.144-6.796c-8.706.786-17.493-1.431-25.663-7.279l19.387-19.387c8.26 5.878 17.43 8.203 26.528 7.381 4.126-.373 7.168-4.019 6.796-8.144s-4.025-7.166-8.144-6.795c-4.984.451-9.935-.688-14.347-3.274l21.883-21.883c2.929-2.929 2.929-7.678 0-10.606-2.929-2.929-7.677-2.929-10.607 0l-21.882 21.88c-2.587-4.412-3.726-9.361-3.275-14.346.373-4.125-2.669-7.772-6.795-8.145-4.117-.371-7.771 2.669-8.145 6.794-.831 9.203 1.558 18.35 7.38 26.531l-19.387 19.387c-5.815-8.12-8.07-16.905-7.28-25.663.372-4.125-2.67-7.771-6.795-8.144-4.116-.368-7.772 2.669-8.145 6.795-1.184 13.106 2.523 26.223 11.498 37.733l-19.693 19.693c-8.032-10.462-11.351-22.073-10.288-33.849.372-4.125-2.67-7.771-6.796-8.144-4.129-.37-7.771 2.671-8.144 6.796-1.444 16.008 3.238 31.932 14.556 45.867l-15.249 15.249c-41.138-48.822-9.054-116.192 47.78-121.816 35.934-3.553 72.468-10.444 103.586-18.938zm-140.925 169.944h-18.413l7.946-7.946c3.085 2.666 6.385 5.245 10.467 7.946zm-21.078-18.548-18.548 18.548h-.01l-18.548-18.548c8.178-9.463 14.668-20.425 18.554-32.21 3.956 12.009 10.519 22.923 18.552 32.21zm-18.554-168.394c32.248 0 64.224 6.495 93.726 18.926-6.117.792-12.204 1.488-18.228 2.084-4.969.491-9.825 1.392-14.538 2.661-13.932-3.899-28.338-6.475-42.867-7.628-4.13-.328-7.743 2.754-8.07 6.883-.328 4.129 2.754 7.742 6.883 8.07 6.947.551 13.865 1.447 20.709 2.679-18.286 11.232-31.306 28.642-37.614 47.958-6.221-18.997-19.054-36.558-37.615-47.958 6.843-1.231 13.761-2.127 20.708-2.679 4.129-.328 7.211-3.941 6.883-8.07-.328-4.128-3.923-7.219-8.07-6.883-14.528 1.154-28.934 3.729-42.866 7.628-10.23-2.755-13.441-2.243-32.765-4.745 29.5-12.431 61.477-18.926 93.724-18.926zm-76.974 35.937c57.096 5.65 88.766 73.171 47.781 121.816l-15.249-15.249c11.318-13.937 16.001-29.861 14.556-45.867-.372-4.125-3.998-7.161-8.144-6.796-4.126.372-7.168 4.018-6.796 8.144 1.061 11.753-2.242 23.367-10.287 33.849l-19.693-19.693c8.961-11.49 12.683-24.605 11.497-37.733-.372-4.125-3.998-7.166-8.145-6.795-4.125.373-7.167 4.019-6.795 8.144.786 8.706-1.431 17.493-7.28 25.663l-19.386-19.387c5.796-8.145 8.215-17.286 7.38-26.531-.374-4.125-4.011-7.17-8.145-6.794-4.126.373-7.168 4.02-6.795 8.145.451 4.984-.688 9.934-3.274 14.347l-21.882-21.884c-2.93-2.929-7.678-2.929-10.607 0s-2.929 7.678 0 10.606l21.883 21.883c-4.412 2.586-9.362 3.725-14.347 3.274-4.137-.367-7.771 2.671-8.144 6.795-.372 4.125 2.67 7.771 6.796 8.144 9.294.84 18.416-1.608 26.528-7.38l19.387 19.386c-8.153 5.837-16.941 8.067-25.663 7.28-4.139-.372-7.771 2.671-8.144 6.796s2.67 7.771 6.796 8.144c13.152 1.185 26.244-2.539 37.732-11.497l19.693 19.693c-10.464 8.032-22.073 11.35-33.849 10.287-4.139-.372-7.771 2.671-8.144 6.796-.372 4.125 2.67 7.771 6.796 8.144 15.765 1.423 31.719-3.068 45.867-14.557l15.249 15.25c-33.764 28.447-77.492 21.906-102.351-4.692-28.933-30.844-11.831-49.318-38.404-146.671 31.152 8.503 67.686 15.389 103.583 18.94zm55.756 151.005h-18.413c3.277-2.167 6.928-4.886 10.467-7.946zm-116.636 0h-65.807c5.774-21.737 15.125-42.612 27.517-61.504 3.449 25.19 17.43 47.474 38.29 61.504zm-43.872-104.23c1.124 6.857 2.126 13.707 3.016 20.525-19.088 24.746-32.984 53.503-40.43 83.705h-15.795c8.775-38.415 26.895-74.095 53.209-104.23zm181.726 399.29c-63.776 0-121.835-24.911-164.987-65.501h23.119c40.015 32.374 90.278 50.182 141.868 50.182 51.591 0 101.854-17.808 141.869-50.182h23.118c-43.152 40.59-101.211 65.501-164.987 65.501zm179.614-80.501h-162.114c-4.143 0-7.5 3.358-7.5 7.5s3.357 7.5 7.5 7.5h99.057c-34.362 22.808-74.999 35.182-116.557 35.182-41.557 0-82.194-12.375-116.556-35.182h99.056c4.143 0 7.5-3.358 7.5-7.5s-3.357-7.5-7.5-7.5c-2.736 0-159.231 0-162.114 0-38.183-42.685-61.387-98.947-61.387-160.5 0-13.035 1.068-26.185 3.167-39.059h475.669c2.126 13.039 3.166 26.23 3.166 39.059 0 57.686-20.619 114.925-61.387 160.5z"/><path d="m256.001 307.873c17.073 0 30.963-17.018 30.963-37.936s-13.89-37.936-30.963-37.936c-17.072 0-30.962 17.018-30.962 37.936 0 20.917 13.89 37.936 30.962 37.936zm0-60.872c8.652 0 15.963 10.503 15.963 22.936 0 12.432-7.311 22.936-15.963 22.936s-15.962-10.503-15.962-22.936 7.31-22.936 15.962-22.936z"/><path d="m308.892 263.744 27.96 40.864c1.424 2.082 3.761 3.265 6.19 3.265 4.134 0 7.499-3.353 7.499-7.5v-60.872c0-4.142-3.357-7.5-7.5-7.5s-7.5 3.358-7.5 7.5v36.628l-27.96-40.864c-1.856-2.713-5.264-3.9-8.406-2.93-3.142.972-5.283 3.877-5.283 7.165v60.872c0 4.142 3.357 7.5 7.5 7.5s7.5-3.358 7.5-7.5z"/><path d="m168.962 307.873c4.143 0 7.5-3.358 7.5-7.5v-36.628l27.96 40.864c1.856 2.713 5.263 3.901 8.406 2.93 3.142-.972 5.283-3.877 5.283-7.165v-60.872c0-4.142-3.357-7.5-7.5-7.5s-7.5 3.358-7.5 7.5v36.628l-27.96-40.864c-1.855-2.713-5.265-3.9-8.406-2.93-3.142.972-5.283 3.877-5.283 7.165v60.872c0 4.142 3.357 7.5 7.5 7.5z"/><path d="m314.7 323.301c-4.143 0-7.5 3.358-7.5 7.5v60.872c0 4.142 3.357 7.5 7.5 7.5s7.5-3.358 7.5-7.5v-60.872c0-4.142-3.357-7.5-7.5-7.5z"/><path d="m214.663 323.301c-17.073 0-30.963 17.018-30.963 37.936s13.89 37.936 30.963 37.936 30.963-17.018 30.963-37.936-13.89-37.936-30.963-37.936zm0 60.871c-8.652 0-15.963-10.503-15.963-22.936 0-12.432 7.311-22.936 15.963-22.936s15.963 10.503 15.963 22.936-7.311 22.936-15.963 22.936z"/><path d="m186.096 330.801c0-4.142-3.357-7.5-7.5-7.5h-47.597c-4.143 0-7.5 3.358-7.5 7.5s3.357 7.5 7.5 7.5h16.297v53.372c0 4.142 3.357 7.5 7.5 7.5s7.5-3.358 7.5-7.5v-53.372h16.3c4.142 0 7.5-3.358 7.5-7.5z"/><path d="m296.73 324.555c-3.449-2.293-8.104-1.356-10.398 2.093l-13.989 21.041-13.989-21.041c-2.293-3.449-6.947-4.386-10.398-2.093-3.449 2.293-4.387 6.949-2.094 10.398l17.474 26.283-17.474 26.283c-2.293 3.449-1.355 8.104 2.094 10.398 3.454 2.296 8.108 1.352 10.398-2.093l13.989-21.041 13.989 21.041c2.296 3.452 6.951 4.385 10.398 2.093 3.449-2.293 4.387-6.949 2.094-10.398l-17.474-26.283 17.474-26.283c2.293-3.449 1.356-8.104-2.094-10.398z"/><path d="m384.211 370.354c-3.743-1.77-8.215-.172-9.986 3.573-3.035 6.415-7.979 10.245-13.225 10.245-8.652 0-15.963-10.503-15.963-22.936 0-12.432 7.311-22.936 15.963-22.936 5.243 0 10.187 3.834 13.223 10.256 1.771 3.744 6.24 5.344 9.986 3.574 3.744-1.771 5.345-6.242 3.574-9.986-5.496-11.623-15.759-18.844-26.783-18.844-17.073 0-30.963 17.018-30.963 37.936s13.89 37.936 30.963 37.936c11.026 0 21.289-7.215 26.783-18.831 1.772-3.744.172-8.215-3.572-9.987z"/></g></g></svg>